PathFileType	4	(X/Y/Z)	C:\Users\86182\Documents\cortex\Trimmed_M3_L15.trc
DataRate	CameraRate	NumFrames	NumMarkers	Units	OrigDataRate	OrigDataStartFrame	OrigNumFrames
100.00	100.00	       140	2	mm	100.00	541	       901
Frame#	Time	gripper			box			
		X1	Y1	Z1	X2	Y2	Z2	

541	5.400	273.46866	149.79173	292.87006	274.39847	148.10457	157.23158	
542	5.410	273.46182	149.79466	292.87024	274.33151	148.07726	157.20798	
543	5.420	273.46442	149.79587	292.86670	274.40045	148.10760	157.22676	
544	5.430	273.45270	149.79854	292.87048	274.42053	148.12755	157.20486	
545	5.440	273.46640	149.79271	292.87012	274.40198	148.12517	157.18556	
546	5.450	273.45044	149.79950	292.87051	274.37872	148.09718	157.22298	
547	5.460	273.46634	149.79811	292.86206	274.40842	148.11713	157.21410	
548	5.470	273.46277	149.79579	292.86792	274.36670	148.09381	157.21492	
549	5.480	273.45663	149.79764	292.86920	274.38388	148.10876	157.20139	
550	5.490	273.44818	149.80046	292.87057	274.35077	148.07475	157.21227	
551	5.500	273.43912	149.80432	292.87082	274.34903	148.08549	157.21144	
552	5.510	273.46866	149.79173	292.87006	274.37195	148.09062	157.22992	
553	5.520	273.46866	149.79173	292.87006	274.39648	148.10152	157.23640	
554	5.530	273.47195	149.79190	292.86768	274.40436	148.11365	157.21719	
555	5.540	273.45432	149.79861	292.86929	274.40698	148.10382	157.24498	
556	5.550	273.46866	149.79173	292.87006	274.38507	148.09554	157.23569	
557	5.560	273.47842	149.79222	292.86288	274.39944	148.10608	157.22917	
558	5.570	273.45303	149.80070	292.86700	274.41953	148.10504	157.25343	
559	5.580	273.47864	149.79440	292.85947	274.38922	148.10568	157.21628	
560	5.590	273.45157	149.80389	292.86322	274.39944	148.10608	157.22917	
561	5.600	273.43460	149.80623	292.87094	274.41669	148.11726	157.22501	
562	5.610	273.46640	149.79271	292.87012	274.38882	148.11626	157.18962	
563	5.620	273.46964	149.79286	292.86774	274.39987	148.11819	157.19989	
564	5.630	273.46564	149.79916	292.86096	274.40338	148.11214	157.21957	
565	5.640	273.43661	149.80843	292.86630	274.35822	148.08836	157.21684	
566	5.650	273.46866	149.79173	292.87006	274.39706	148.09630	157.23892	
567	5.660	273.46866	149.79173	292.87006	274.41293	148.10985	157.22137	
568	5.670	273.46829	149.79498	292.86548	274.37949	148.09459	157.23039	
569	5.680	273.48096	149.79344	292.85938	274.36621	148.08562	157.23447	
570	5.690	273.45078	149.80167	292.86707	274.34772	148.07988	157.22351	
571	5.700	273.43625	149.80630	292.86975	274.36371	148.08928	157.22205	
572	5.710	273.45850	149.80521	292.85663	274.37640	148.10483	157.20096	
573	5.720	273.46695	149.79707	292.86319	274.36621	148.08562	157.23447	
574	5.730	273.46634	149.79811	292.86206	274.40784	148.10573	157.24144	
575	5.740	273.46823	149.80035	292.85748	274.35059	148.08330	157.21881	
576	5.750	273.46802	149.80309	292.85349	274.37296	148.09215	157.22752	
577	5.760	273.45013	149.80798	292.85800	274.40314	148.10181	157.24475	
578	5.770	273.47195	149.79190	292.86768	274.39502	148.10147	157.23451	
579	5.780	273.46735	149.79385	292.86780	274.36768	148.09532	157.21255	
580	5.790	273.47339	149.79822	292.85724	274.40277	148.10289	157.24156	
581	5.800	273.44174	149.80550	292.86731	274.35434	148.09708	157.19011	
582	5.810	273.46506	149.79482	292.86786	274.36395	148.09337	157.21233	
583	5.820	273.47028	149.79182	292.86887	274.39484	148.10664	157.22151	
584	5.830	273.47134	149.79189	292.85867	274.35275	148.08746	157.21165	
585	5.840	273.43686	149.80527	292.87088	274.32742	148.07190	157.21544	
586	5.850	273.46243	149.79900	292.86334	274.33688	148.08478	157.19598	
587	5.860	273.47610	149.79781	292.85135	274.35681	148.09352	157.20222	
588	5.870	273.48367	149.79257	292.85889	274.40735	148.09317	157.22607	
589	5.880	273.48502	149.79129	292.85989	274.36371	148.08928	157.22205	
590	5.890	273.46411	149.79369	292.87018	274.39304	148.10768	157.21651	
591	5.900	273.45789	149.80092	292.86346	274.41245	148.10469	157.23347	
592	5.910	273.48846	149.79362	292.85410	274.40475	148.11258	157.22034	
593	5.920	273.46149	149.79788	292.86563	274.39795	148.11522	157.20462	
594	5.930	273.47028	149.79182	292.86887	274.38626	148.10115	157.22343	
595	5.940	273.47675	149.79214	292.86411	274.34802	148.08398	157.21381	
596	5.950	273.48483	149.79256	292.85815	274.36618	148.10040	157.19797	
597	5.960	273.46866	149.79173	292.87006	274.39856	148.10197	157.23811	
598	5.970	273.47354	149.79198	292.86649	274.39124	148.10870	157.21152	
599	5.980	273.46866	149.79173	292.87006	274.33737	148.07437	157.22287	
600	5.990	273.46866	149.79173	292.87006	274.37820	148.08788	157.23962	
601	6.000	273.46371	149.79692	292.86560	274.36066	148.08470	157.22920	
602	6.010	273.46411	149.79369	292.87018	274.36145	148.09694	157.20010	
603	6.020	273.46866	149.79173	292.87006	274.35867	148.08168	157.23399	
604	6.030	273.46423	149.79262	292.86230	274.34799	148.09941	157.17522	
605	6.040	273.47842	149.79222	292.86288	274.38782	148.11476	157.19199	
606	6.050	273.46866	149.79173	292.87006	274.39142	148.11275	157.20181	
607	6.060	273.48801	149.79272	292.85577	274.37326	148.10280	157.19051	
608	6.070	273.47330	149.79146	292.86743	274.36240	148.08363	157.23424	
609	6.080	273.47290	149.79303	292.86533	274.37692	148.09047	157.23639	
610	6.090	273.46063	149.78702	292.86374	274.34476	148.08203	157.21349	
611	6.100	273.46866	149.79173	292.87006	274.38422	148.08009	157.23320	
612	6.110	273.46866	149.79173	292.87006	274.35114	148.07771	157.23354	
613	6.120	273.46866	149.79173	292.87006	274.36697	148.09790	157.20523	
614	6.130	273.46182	149.79466	292.87024	274.40558	148.09877	157.23312	
615	6.140	273.47614	149.79320	292.86295	274.33588	148.07661	157.21548	
616	6.150	273.43210	149.77597	292.85733	274.33221	148.08540	157.18886	
617	6.160	273.46082	149.79893	292.86450	274.37244	148.09882	157.21040	
618	6.170	273.46866	149.79173	292.87006	274.34964	148.09143	157.19661	
619	6.180	273.48392	149.79036	292.85263	274.36371	148.08928	157.22205	
620	6.190	273.47495	149.79237	292.86496	274.37900	148.09866	157.21967	
621	6.200	273.47675	149.79214	292.86411	274.34161	148.08159	157.21100	
622	6.210	273.47675	149.79214	292.86411	274.36066	148.08470	157.22920	
623	6.220	273.46866	149.79173	292.87006	274.39291	148.10547	157.22139	
624	6.230	273.47479	149.79529	292.86069	274.35217	148.07925	157.23112	
625	6.240	273.45206	149.79958	292.86932	274.35214	148.07106	157.22885	
626	6.250	273.45499	149.79756	292.87039	274.36398	148.08926	157.21686	
627	6.260	273.47516	149.79207	292.86526	274.34946	148.07881	157.22852	
628	6.270	273.46405	149.79907	292.86215	274.35519	148.07558	157.23311	
629	6.280	273.47354	149.79198	292.86649	274.34198	148.07489	157.22804	
630	6.290	273.44891	149.78320	292.86319	274.37219	148.09473	157.22012	
631	6.300	273.45013	149.80269	292.86594	274.34229	148.06667	157.23192	
632	6.310	273.47614	149.79320	292.86295	274.34061	148.08008	157.21335	
633	6.320	273.47263	149.79167	292.86752	274.35489	148.07968	157.23376	
634	6.330	273.46991	149.79506	292.86429	274.35181	148.06952	157.23218	
635	6.340	273.48254	149.79352	292.85818	274.40338	148.11214	157.21957	
636	6.350	273.49234	149.79193	292.85410	274.38336	148.09399	157.23715	
637	6.360	273.47476	149.79778	292.85699	274.34027	148.07596	157.22305	
638	6.370	273.48642	149.79263	292.85696	274.33386	148.07358	157.22021	
639	6.380	273.46927	149.79611	292.86313	274.36240	148.08363	157.23424	
640	6.390	273.45950	149.80101	292.86227	274.36920	148.09018	157.22728	
641	6.400	273.45953	149.79562	292.87030	274.32266	148.07739	157.19542	
642	6.410	273.44626	149.80357	292.86719	274.33170	148.07417	157.21513	
643	6.420	273.47516	149.79207	292.86526	274.34958	148.08846	157.20398	
644	6.430	273.46866	149.79173	292.87006	274.33606	148.07959	157.20819	
645	6.440	273.46735	149.79385	292.86780	274.35867	148.08168	157.23399	
646	6.450	273.46149	149.79788	292.86563	274.34741	148.07756	157.22839	
647	6.460	273.46927	149.79611	292.86313	274.34476	148.08905	157.19669	
648	6.470	273.46866	149.79173	292.87006	274.37372	148.08957	157.23495	
649	6.480	273.47195	149.79190	292.86768	274.32504	148.06401	157.23187	
650	6.490	273.49280	149.79297	292.85223	274.36194	148.09033	157.21706	
651	6.500	273.46866	149.79173	292.87006	274.35809	148.08723	157.21925	
652	6.510	273.48160	149.79239	292.86050	274.34738	148.08659	157.20650	
653	6.520	273.47424	149.79176	292.86633	274.34494	148.08310	157.21107	
654	6.530	273.44916	149.80159	292.86826	274.41495	148.11340	157.23219	
655	6.540	273.48160	149.79239	292.86050	274.38211	148.10980	157.19646	
656	6.550	273.48322	149.79248	292.85931	274.34024	148.07184	157.22760	
657	6.560	273.46411	149.79369	292.87018	274.39648	148.10152	157.23640	
658	6.570	273.47452	149.79311	292.86414	274.32275	148.06775	157.21953	
659	6.580	273.46735	149.79385	292.86780	274.36658	148.09045	157.21698	
660	6.590	273.47842	149.79222	292.86288	274.39679	148.10965	157.21674	
661	6.600	273.46051	149.79675	292.86795	274.38702	148.10107	157.20782	
662	6.610	273.46829	149.79498	292.86548	274.40671	148.10898	157.23189	
663	6.620	273.48642	149.79263	292.85696	274.39850	148.10045	157.23621	
664	6.630	273.45737	149.78687	292.86615	274.31638	148.06537	157.21674	
665	6.640	273.45953	149.79562	292.87030	274.38327	148.09659	157.23062	
666	6.650	273.48160	149.79239	292.86050	274.37717	148.10229	157.20825	
667	6.660	273.47028	149.79182	292.86887	274.38586	148.11177	157.19667	
668	6.670	273.46866	149.79173	292.87006	274.40347	148.12029	157.19887	
669	6.680	273.46149	149.79788	292.86563	274.44986	148.15016	157.18336	
670	6.690	273.47842	149.79222	292.86288	274.40851	148.12764	157.18832	
671	6.700	273.46866	149.79173	292.87006	274.38672	148.10109	157.21303	
672	6.710	273.47354	149.79198	292.86649	274.33926	148.07034	157.22998	
673	6.720	273.48160	149.79239	292.86050	274.36945	148.09428	157.21751	
674	6.730	273.46866	149.79173	292.87006	274.33182	148.07053	157.22498	
675	6.740	273.46866	149.79173	292.87006	274.31390	148.05815	157.23116	
676	6.750	273.46866	149.79173	292.87006	274.31018	148.05620	157.23093	
677	6.760	273.46866	149.79173	292.87006	274.34741	148.07576	157.23328	
678	6.770	273.46866	149.79173	292.87006	274.33655	148.07401	157.22282	
679	6.780	273.46866	149.79173	292.87006	274.35895	148.08578	157.22420	
680	6.790	273.46866	149.79173	292.87006	274.34396	148.07791	157.22328	
